<?xml version="1.0" encoding="utf-8"?>
<!-- Generator: Adobe Illustrator 23.0.3, SVG Export Plug-In . SVG Version: 6.00 Build 0)  -->
<svg version="1.1" id="Layer_2" xmlns="http://www.w3.org/2000/svg" xmlns:xlink="http://www.w3.org/1999/xlink" x="0px" y="0px"
	 viewBox="0 0 52.8 56.6" style="enable-background:new 0 0 52.8 56.6;" xml:space="preserve">
<style type="text/css">
	.st0{fill:#F5DA00;}
	.st1{fill:#3B5B44;}
	.st2{fill:#6DAC3B;}
</style>
<g id="Wordmark">
	<g>
		<g>
			<polygon class="st0" points="50,48.9 50,47.4 49.1,47.4 49.1,49.8 			"/>
			<g>
				<path class="st1" d="M9.4,53.4c-0.3,0.4-0.7,0.7-1.1,0.9c-0.4,0.2-0.9,0.3-1.4,0.3c-0.6,0-1.1-0.1-1.6-0.4
					c-0.5-0.3-0.9-0.7-1.2-1.2c-0.3-0.5-0.4-1-0.4-1.6c0-0.6,0.1-1.1,0.4-1.6c0.3-0.5,0.7-0.9,1.2-1.2c0.5-0.3,1-0.4,1.6-0.4
					c0.4,0,0.9,0.1,1.3,0.3c0.4,0.2,0.8,0.4,1.1,0.8l0.1,0.1l0.7-0.6l-0.1-0.1c-0.4-0.4-0.9-0.7-1.4-1c-0.5-0.2-1.1-0.3-1.6-0.3
					c-0.7,0-1.4,0.2-2,0.5c-0.6,0.4-1.1,0.9-1.5,1.5c-0.4,0.6-0.5,1.3-0.5,2c0,0.7,0.2,1.4,0.5,2c0.4,0.6,0.9,1.1,1.5,1.5
					c0.6,0.4,1.3,0.5,2,0.5c0.6,0,1.2-0.1,1.8-0.4c0.5-0.3,1-0.6,1.4-1.1l0.1-0.1l-0.7-0.5L9.4,53.4z"/>
				<path class="st1" d="M10.4,55.3h1l0.9-2h3.9l0.9,2h1l-3.8-8.4L10.4,55.3z M14.4,49.1l1.5,3.4h-3.1L14.4,49.1z"/>
				<path class="st1" d="M23.1,51.4c-0.2-0.1-0.3-0.2-0.6-0.2c-0.2-0.1-0.4-0.1-0.7-0.1l-0.4-0.1c-0.3,0-0.6-0.1-0.8-0.1
					c-0.2,0-0.4-0.1-0.5-0.2c-0.2-0.1-0.4-0.3-0.6-0.5c-0.2-0.2-0.2-0.4-0.2-0.6c0-0.2,0-0.3,0.1-0.5c0.1-0.2,0.2-0.3,0.4-0.4
					c0.2-0.1,0.4-0.3,0.7-0.3c0.5-0.2,1.1-0.2,1.6,0c0.3,0.1,0.5,0.2,0.7,0.3c0.2,0.1,0.3,0.3,0.4,0.4c0.1,0.2,0.1,0.3,0.1,0.5
					l0,0.3l0.9-0.5l0-0.1c-0.1-0.5-0.4-0.9-0.9-1.3c-0.6-0.4-1.3-0.6-2-0.6c-0.4,0-0.7,0.1-1.1,0.2c-0.3,0.1-0.7,0.3-0.9,0.5
					c-0.3,0.2-0.5,0.5-0.7,0.7c-0.2,0.3-0.2,0.6-0.2,0.9c0,0.4,0.1,0.8,0.4,1.1c0.2,0.3,0.6,0.6,1,0.8c0.3,0.1,0.6,0.2,0.9,0.3
					c0.3,0.1,0.5,0.1,0.6,0.1c0.6,0.1,1.1,0.2,1.3,0.3c0.3,0.1,0.4,0.3,0.6,0.5c0.1,0.2,0.2,0.4,0.2,0.6c0,0.4-0.2,0.7-0.6,0.9
					c-0.4,0.3-0.9,0.4-1.5,0.4c-0.3,0-0.6,0-0.8-0.1c-0.3-0.1-0.5-0.2-0.7-0.3c-0.4-0.2-0.5-0.5-0.6-0.9l0-0.3l-0.9,0.5l0,0.1
					c0.1,0.5,0.4,1,0.9,1.3c0.3,0.2,0.6,0.3,0.9,0.5c0.3,0.1,0.7,0.2,1.1,0.2c0.8,0,1.4-0.2,2-0.6c0.3-0.2,0.5-0.5,0.7-0.7
					c0.2-0.3,0.2-0.6,0.2-0.9c0-0.4-0.1-0.7-0.3-1C23.8,51.8,23.5,51.6,23.1,51.4z"/>
				<path class="st1" d="M25.3,55.3h1l0.9-2h3.9l0.9,2h1l-3.8-8.4L25.3,55.3z M29.2,49.1l1.5,3.4h-3.1L29.2,49.1z"/>
				<path class="st1" d="M35.6,48.7c0.5-0.3,1-0.4,1.6-0.4c0.4,0,0.9,0.1,1.3,0.3c0.4,0.2,0.8,0.4,1.1,0.7l0.1,0.1l0.6-0.6l-0.1-0.1
					c-0.4-0.4-0.8-0.7-1.3-0.9c-0.5-0.2-1.1-0.3-1.6-0.3c-0.7,0-1.4,0.2-2,0.5c-0.6,0.4-1.1,0.8-1.5,1.5c-0.4,0.6-0.5,1.3-0.5,2
					c0,0.7,0.2,1.4,0.5,2c0.4,0.6,0.9,1.1,1.5,1.5c0.6,0.4,1.3,0.5,2,0.5h2.9v-4.1h-3.4v0.9h2.5v2.4h-2c-0.6,0-1.1-0.1-1.6-0.4
					c-0.5-0.3-0.9-0.7-1.2-1.1c-0.3-0.5-0.4-1-0.4-1.6c0-0.6,0.1-1.1,0.4-1.6C34.8,49.3,35.2,48.9,35.6,48.7z"/>
				<path class="st1" d="M45.5,52c0.2,0,0.5-0.1,0.8-0.2c0.4-0.2,0.7-0.4,1-0.8c0.3-0.4,0.4-0.8,0.4-1.3c0-0.3-0.1-0.6-0.2-0.9
					c-0.1-0.3-0.3-0.5-0.6-0.7c-0.3-0.2-0.5-0.4-0.9-0.5c-0.3-0.1-0.7-0.2-1.1-0.2h-2.9v7.9H43v-7h2c0.4,0,0.7,0.1,1,0.2
					c0.3,0.1,0.5,0.3,0.6,0.5c0.1,0.2,0.2,0.4,0.2,0.7c0,0.3-0.1,0.5-0.3,0.7c-0.2,0.2-0.4,0.4-0.6,0.5c-0.3,0.1-0.8,0.2-1.3,0.2
					h-1.3l3.5,4.2h1.2L45.1,52C45.2,52,45.4,52,45.5,52z"/>
				<polygon class="st1" points="49.1,50.5 49.1,55.3 50,55.3 50,49.6 				"/>
			</g>
		</g>
		<path class="st2" d="M37.2,14.3c-0.7-1.1-1.5-2.1-2.2-3.2l-8.3,8v5.4L37.2,14.3z"/>
		<polygon class="st1" points="32.6,8 26.7,1.2 26.7,13.6 		"/>
		<path class="st1" d="M26.7,24.4V19l-8.3-8c-0.8,1.1-1.6,2.1-2.2,3.2L26.7,24.4z"/>
		<path class="st1" d="M11.5,25.9c-0.1,1.7,0.1,3.2,0.6,4.7c2.2,6.9,12.3,9.3,14.5,9.7L11.5,25.9z"/>
		<path class="st1" d="M26.7,35.2v-5.4L14.1,17.7c-0.7,1.3-1.3,2.6-1.7,3.7L26.7,35.2z"/>
		<path class="st2" d="M41,21.5c-0.4-1.2-1-2.4-1.7-3.7L26.7,29.8v5.4L41,21.5z"/>
		<path class="st2" d="M27,40.4c2.2-0.4,12.3-2.8,14.5-9.7c0.5-1.5,0.7-3,0.6-4.7L27,40.4z"/>
	</g>
</g>
</svg>
