<svg id="Layer_2" data-name="Layer 2" xmlns="http://www.w3.org/2000/svg" viewBox="0 0 52.8 15.10588"><defs><style>.cls-1{fill:#6dac3b;}.cls-2{fill:#3b5b44;}.cls-3{fill:#f5da00;}</style></defs><title>casagri-logo-05</title><path class="cls-1" d="M10.67654,5.496c-.19336-.29457-.40494-.5936-.62339-.88769L7.75522,6.81666V8.30339Z"/><polygon class="cls-2" points="9.386 3.748 7.755 1.864 7.755 5.315 9.386 3.748"/><path class="cls-2" d="M7.75522,8.30344V6.81671l-2.298-2.20832c-.2185.294-.43.5931-.62339.88767Z"/><path class="cls-2" d="M3.5246,8.72773a3.43751,3.43751,0,0,0,.15418,1.30248c.60472,1.91115,3.40817,2.5781,4.01055,2.69984Z"/><path class="cls-2" d="M7.75522,11.29167V9.805L4.26639,6.45231A7.99335,7.99335,0,0,0,3.8002,7.491Z"/><path class="cls-1" d="M11.71019,7.491a7.98951,7.98951,0,0,0-.4662-1.03872L7.75522,9.805v1.48671Z"/><path class="cls-1" d="M7.821,12.73005c.60229-.12169,3.40589-.78865,4.01061-2.69984a3.43659,3.43659,0,0,0,.15418-1.30248Z"/><polygon class="cls-3" points="47.813 6.134 47.813 5.121 47.205 5.121 47.205 6.733 47.813 6.134"/><path class="cls-2" d="M19.89169,9.19681a2.23875,2.23875,0,0,1-.7575.591,2.17284,2.17284,0,0,1-2.02111-.07924,2.20668,2.20668,0,0,1-.796-.79156,2.15466,2.15466,0,0,1,.00013-2.17851,2.20618,2.20618,0,0,1,.79584-.79155A2.16374,2.16374,0,0,1,19.07983,5.845a2.18763,2.18763,0,0,1,.72616.52949l.08047.0893.4673-.4077-.08415-.08977a2.8889,2.8889,0,0,0-.94338-.67069,2.78423,2.78423,0,0,0-2.52342.13793,2.7964,2.7964,0,0,0-1.016,1.009,2.76479,2.76479,0,0,0-.00023,2.77393,2.78559,2.78559,0,0,0,1.01625,1.0134,2.74091,2.74091,0,0,0,1.39952.37614,2.78245,2.78245,0,0,0,2.17042-1.03514l.07668-.09468-.4826-.36936Z"/><path class="cls-2" d="M20.63233,10.54987h.68225l.6381-1.34653h2.711l.605,1.34653h.67122l-2.57779-5.78Zm2.7074-4.2932,1.05056,2.34H22.23957Z"/><path class="cls-2" d="M29.34716,7.81078a1.75346,1.75346,0,0,0-.3842-.14658,3.96878,3.96878,0,0,0-.45187-.0907l-.28594-.04021c-.212-.02595-.3886-.05119-.52486-.07481a1.36843,1.36843,0,0,1-.34373-.105,1.1802,1.1802,0,0,1-.41947-.34435.68394.68394,0,0,1-.16189-.41891.61607.61607,0,0,1,.09637-.32587,1.05712,1.05712,0,0,1,.29412-.30555,1.40123,1.40123,0,0,1,.45864-.22372,2.02974,2.02974,0,0,1,1.11833,0,1.50556,1.50556,0,0,1,.46409.22419,1.06234,1.06234,0,0,1,.28083.3004.69427.69427,0,0,1,.10088.3275l.00807.1945L30.193,6.4542l-.01459-.08368a1.42409,1.42409,0,0,0-.6006-.89138A2.36908,2.36908,0,0,0,28.186,5.05765a2.56953,2.56953,0,0,0-.74967.10917,2.20523,2.20523,0,0,0-.6438.31325,1.61531,1.61531,0,0,0-.45934.4963,1.21217,1.21217,0,0,0-.16569.61389,1.26488,1.26488,0,0,0,.24925.75181,1.73633,1.73633,0,0,0,.67014.54538,2.32891,2.32891,0,0,0,.63775.18631c.23655.03741.37376.05891.41459.06453A3.09,3.09,0,0,1,29.052,8.34a1.17557,1.17557,0,0,1,.40119.33218.64684.64684,0,0,1,.13519.393.77952.77952,0,0,1-.38089.63866,1.68685,1.68685,0,0,1-1.02147.30342,1.99913,1.99913,0,0,1-.5651-.07878,1.423,1.423,0,0,1-.46066-.22745.78363.78363,0,0,1-.38527-.6265l-.01069-.19146-.5956.32773.01709.08511a1.44615,1.44615,0,0,0,.60723.89581,2.20144,2.20144,0,0,0,.64357.313,2.57435,2.57435,0,0,0,.74943.109,2.36733,2.36733,0,0,0,1.393-.4222,1.53263,1.53263,0,0,0,.45673-.50682,1.27976,1.27976,0,0,0,.16071-.61948,1.23167,1.23167,0,0,0-.22789-.71A1.81146,1.81146,0,0,0,29.34716,7.81078Z"/><path class="cls-2" d="M30.82169,10.54987h.68249l.6381-1.34653H34.853l.6051,1.34653h.67133l-2.57814-5.78Zm2.70752-4.2932,1.05067,2.34H32.429Z"/><path class="cls-2" d="M37.95,5.95931a2.139,2.139,0,0,1,1.08165-.28707,2.18679,2.18679,0,0,1,1.58111.68027l.0832.0879.44427-.4105-.08154-.08719a2.79013,2.79013,0,0,0-.91928-.65106A2.767,2.767,0,0,0,37.64,5.42959a2.79692,2.79692,0,0,0-1.0076,1.00053,2.72789,2.72789,0,0,0,0,2.75523,2.76956,2.76956,0,0,0,2.39916,1.36452h2.02669V7.732H38.69937v.59868h1.73482V9.95141H39.0316a2.11641,2.11641,0,0,1-1.08118-.2908,2.19287,2.19287,0,0,1-.79193-.7836,2.07293,2.07293,0,0,1-.29139-1.07325,2.05139,2.05139,0,0,1,.29116-1.0688A2.17541,2.17541,0,0,1,37.95,5.95931Z"/><path class="cls-2" d="M44.70834,8.24606a1.81427,1.81427,0,0,0,.52345-.14844,1.6694,1.6694,0,0,0,.68188-.53674,1.38539,1.38539,0,0,0,.155-1.45266,1.60312,1.60312,0,0,0-.38944-.50892,1.84,1.84,0,0,0-.60723-.35486,2.19124,2.19124,0,0,0-.73875-.123H42.37162v5.4284h.60783V5.72016h1.35382a1.48546,1.48546,0,0,1,.67418.14634,1.14119,1.14119,0,0,1,.44083.371.80974.80974,0,0,1,.14967.4645.78353.78353,0,0,1-.17733.49794,1.17685,1.17685,0,0,1-.42836.34948,2.51035,2.51035,0,0,1-.92628.1426h-.90635l2.38906,2.85785h.80154L44.43985,8.26826C44.53244,8.26359,44.62217,8.25611,44.70834,8.24606Z"/><polygon class="cls-2" points="47.205 7.208 47.205 10.55 47.813 10.55 47.813 6.609 47.205 7.208"/></svg>