<svg id="Layer_2" data-name="Layer 2" xmlns="http://www.w3.org/2000/svg" viewBox="0 0 52.8 56.6"><defs><style>.cls-1{fill:#f5da00;}.cls-2{fill:#3b5b44;}</style></defs><title>casagri-logo-03</title><polygon class="cls-1" points="50.058 26.731 50.058 25.252 49.17 25.252 49.17 27.605 50.058 26.731"/><path class="cls-2" d="M9.2817,31.2035a3.26967,3.26967,0,0,1-1.10627.86308,3.17335,3.17335,0,0,1-2.95168-.11574,3.22258,3.22258,0,0,1-1.16245-1.156,3.14674,3.14674,0,0,1,.00018-3.18156,3.22192,3.22192,0,0,1,1.16227-1.156A3.16,3.16,0,0,1,8.096,26.30844a3.195,3.195,0,0,1,1.06051.77327l.11752.13042.68245-.59542-.12289-.1311a4.21931,4.21931,0,0,0-1.37774-.97949,4.06618,4.06618,0,0,0-3.68527.20144A4.08411,4.08411,0,0,0,3.2868,27.18105a4.03777,4.03777,0,0,0-.00034,4.05112,4.06812,4.06812,0,0,0,1.48416,1.48,4.00288,4.00288,0,0,0,2.0439.54933,4.06361,4.06361,0,0,0,3.16974-1.51174l.112-.13828-.70481-.53942Z"/><path class="cls-2" d="M10.36335,33.17954h.99638l.93189-1.96649h3.95916l.88352,1.96649h.98026L14.3499,24.7383Zm3.954-6.2699,1.53426,3.41747h-3.141Z"/><path class="cls-2" d="M23.09072,29.17931a2.56046,2.56046,0,0,0-.56111-.21406,5.79314,5.79314,0,0,0-.65992-.13247l-.41759-.05873c-.30958-.03789-.56751-.07476-.76651-.10925a1.99851,1.99851,0,0,1-.502-.15328,1.72349,1.72349,0,0,1-.6126-.5029.99883.99883,0,0,1-.23643-.6118.89976.89976,0,0,1,.14074-.4759,1.544,1.544,0,0,1,.42954-.44624,2.04611,2.04611,0,0,1,.66981-.32671,2.964,2.964,0,0,1,1.63324,0,2.19829,2.19829,0,0,1,.67776.3274,1.55157,1.55157,0,0,1,.41014.43871,1.014,1.014,0,0,1,.14733.4783l.01178.28405.87106-.4783-.02131-.12222a2.07973,2.07973,0,0,0-.87714-1.30178,3.45972,3.45972,0,0,0-2.0326-.61556,3.75275,3.75275,0,0,0-1.09484.15943,3.22038,3.22038,0,0,0-.94022.45749,2.359,2.359,0,0,0-.67084.72481,1.77026,1.77026,0,0,0-.242.89652,1.84726,1.84726,0,0,0,.364,1.098,2.53577,2.53577,0,0,0,.9787.79649,3.40106,3.40106,0,0,0,.93137.2721c.34548.05462.54586.086.60548.09423a4.513,4.513,0,0,1,1.333.29464,1.717,1.717,0,0,1,.5859.48512.94472.94472,0,0,1,.19744.57392,1.13844,1.13844,0,0,1-.55626.93272,2.46355,2.46355,0,0,1-1.49179.44313,2.91952,2.91952,0,0,1-.82529-.11506,2.07843,2.07843,0,0,1-.67275-.33216,1.1445,1.1445,0,0,1-.56267-.915l-.0156-.27961-.86984.47863.025.12428a2.112,2.112,0,0,0,.88682,1.30827,3.21518,3.21518,0,0,0,.93988.45714,3.7596,3.7596,0,0,0,1.09449.1591,3.45727,3.45727,0,0,0,2.03434-.61659,2.23823,2.23823,0,0,0,.667-.74017,1.86894,1.86894,0,0,0,.23471-.90471,1.79878,1.79878,0,0,0-.33282-1.03685A2.64545,2.64545,0,0,0,23.09072,29.17931Z"/><path class="cls-2" d="M25.24415,33.17954h.99674l.93189-1.96649h3.9588l.8837,1.96649h.98042L29.23052,24.7383Zm3.95413-6.2699,1.53443,3.41747H27.59156Z"/><path class="cls-2" d="M35.65445,26.47537a3.12392,3.12392,0,0,1,1.57967-.41924,3.19364,3.19364,0,0,1,2.3091.99349l.1215.12837.64883-.59951-.11909-.12734a4.075,4.075,0,0,0-1.34254-.95082,4.041,4.041,0,0,0-3.65007.20144,4.08477,4.08477,0,0,0-1.47152,1.4612,3.98387,3.98387,0,0,0,0,4.02381,4.04474,4.04474,0,0,0,3.50379,1.99277H40.194V29.06425h-3.445v.87433H39.2825v2.367H37.23412a3.09082,3.09082,0,0,1-1.579-.42469,3.20246,3.20246,0,0,1-1.15656-1.14439,3.02739,3.02739,0,0,1-.42555-1.5674,2.9959,2.9959,0,0,1,.42521-1.5609A3.177,3.177,0,0,1,35.65445,26.47537Z"/><path class="cls-2" d="M45.52458,29.815a2.649,2.649,0,0,0,.76445-.21679,2.4378,2.4378,0,0,0,.99585-.78387,2.02321,2.02321,0,0,0,.22638-2.12149,2.34116,2.34116,0,0,0-.56873-.74324,2.6872,2.6872,0,0,0-.88683-.51825,3.2,3.2,0,0,0-1.07888-.17959H42.112v7.92777h.8877V26.12612h1.97715a2.16935,2.16935,0,0,1,.98459.21371,1.66661,1.66661,0,0,1,.64379.54183,1.18242,1.18242,0,0,1,.2186.67835,1.14436,1.14436,0,0,1-.259.72721,1.71888,1.71888,0,0,1-.62559.5104,3.66656,3.66656,0,0,1-1.35277.20825H43.2628l3.489,4.17367h1.17058l-2.79-3.33211C45.2677,29.84061,45.39873,29.82968,45.52458,29.815Z"/><polygon class="cls-2" points="49.17 28.299 49.17 33.18 50.058 33.18 50.058 27.424 49.17 28.299"/></svg>