<?xml version="1.0" encoding="utf-8"?>
<!-- Generator: Adobe Illustrator 26.0.0, SVG Export Plug-In . SVG Version: 6.00 Build 0)  -->
<svg version="1.1" id="Layer_2" xmlns="http://www.w3.org/2000/svg" xmlns:xlink="http://www.w3.org/1999/xlink" x="0px" y="0px"
	 viewBox="0 0 93.1 20.8" style="enable-background:new 0 0 93.1 20.8;" xml:space="preserve">
<style type="text/css">
	.st0{fill:#6DAC3B;}
	.st1{fill:#3B5B44;}
	.st2{fill:#F5DA00;}
</style>
<g id="Wordmark_00000124127809504133924550000005170258689184102572_">
	<g>
		<path class="st0" d="M16.1,7.7c-0.3-0.5-0.7-0.9-1-1.4l-3.7,3.6v2.4L16.1,7.7z"/>
		<polygon class="st1" points="14.1,4.9 11.4,1.8 11.4,7.4 		"/>
		<path class="st1" d="M11.4,12.2V9.8L7.7,6.2C7.3,6.7,7,7.2,6.7,7.7L11.4,12.2z"/>
		<path class="st1" d="M4.6,12.9c0,0.8,0,1.4,0.3,2.1c1,3.1,5.5,4.2,6.5,4.4L4.6,12.9z"/>
		<path class="st1" d="M11.4,17.1v-2.4L5.8,9.2C5.5,9.8,5.2,10.4,5,10.9L11.4,17.1z"/>
		<path class="st0" d="M17.8,10.9c-0.2-0.5-0.4-1.1-0.8-1.7l-5.7,5.4v2.4L17.8,10.9z"/>
		<path class="st0" d="M11.6,19.4c1-0.2,5.5-1.3,6.5-4.4c0.2-0.7,0.3-1.3,0.3-2.1L11.6,19.4z"/>
	</g>
</g>
<g>
	<polygon class="st2" points="86.8,7.9 86.8,5.9 85.6,5.9 85.6,9 	"/>
	<g>
		<path class="st1" d="M33.3,13.8c-0.4,0.5-0.9,0.9-1.5,1.2c-0.5,0.3-1.2,0.4-1.8,0.4c-0.8,0-1.5-0.1-2.1-0.5
			c-0.7-0.4-1.2-0.9-1.6-1.6c-0.4-0.7-0.5-1.3-0.5-2.1c0-0.8,0.1-1.5,0.5-2.1c0.4-0.7,0.9-1.2,1.6-1.6c0.7-0.4,1.3-0.5,2.1-0.5
			c0.5,0,1.2,0.1,1.7,0.4s1.1,0.5,1.5,1.1l0.1,0.1l0.9-0.8l-0.1-0.1c-0.5-0.5-1.2-0.9-1.8-1.3c-0.7-0.3-1.5-0.4-2.1-0.4
			c-0.9,0-1.8,0.3-2.6,0.7c-0.8,0.5-1.5,1.2-2,2c-0.5,0.8-0.7,1.7-0.7,2.6c0,0.9,0.3,1.8,0.7,2.6c0.5,0.8,1.2,1.5,2,2
			s1.7,0.7,2.6,0.7c0.8,0,1.6-0.1,2.4-0.5c0.7-0.4,1.3-0.8,1.8-1.5l0.1-0.1l-0.9-0.7L33.3,13.8z"/>
		<path class="st1" d="M34.6,16.3h1.3l1.2-2.6h5.1l1.2,2.6h1.3l-5-11.1L34.6,16.3z M39.9,8.1l2,4.5h-4.1L39.9,8.1z"/>
		<path class="st1" d="M51.4,11.2c-0.3-0.1-0.4-0.3-0.8-0.3c-0.3-0.1-0.5-0.1-0.9-0.1l-0.5-0.1c-0.4,0-0.8-0.1-1.1-0.1
			c-0.3,0-0.5-0.1-0.7-0.3c-0.3-0.1-0.5-0.4-0.8-0.7c-0.3-0.3-0.3-0.5-0.3-0.8c0-0.3,0-0.4,0.1-0.7c0.1-0.3,0.3-0.4,0.5-0.5
			c0.3-0.1,0.5-0.4,0.9-0.4c0.7-0.3,1.5-0.3,2.1,0c0.4,0.1,0.7,0.3,0.9,0.4c0.3,0.1,0.4,0.4,0.5,0.5c0.1,0.3,0.1,0.4,0.1,0.7v0.4
			l1.2-0.7V8.4c-0.1-0.7-0.5-1.2-1.2-1.7c-0.8-0.5-1.7-0.8-2.6-0.8c-0.5,0-0.9,0.1-1.5,0.3c-0.4,0.1-0.9,0.4-1.2,0.7
			c-0.4,0.3-0.7,0.7-0.9,0.9c-0.3,0.4-0.3,0.8-0.3,1.2c0,0.5,0.1,1.1,0.5,1.5c0.3,0.4,0.8,0.8,1.3,1.1c0.4,0.1,0.8,0.3,1.2,0.4
			s0.7,0.1,0.8,0.1c0.8,0.1,1.5,0.3,1.7,0.4c0.4,0.1,0.5,0.4,0.8,0.7c0.1,0.3,0.3,0.5,0.3,0.8c0,0.5-0.3,0.9-0.8,1.2
			c-0.5,0.4-1.2,0.5-2,0.5c-0.4,0-0.8,0-1.1-0.1c-0.4-0.1-0.7-0.3-0.9-0.4c-0.5-0.3-0.7-0.7-0.8-1.2v-0.4L45,14.1v0.1
			c0.1,0.7,0.5,1.3,1.2,1.7c0.4,0.3,0.8,0.4,1.2,0.7c0.4,0.1,0.9,0.3,1.5,0.3c1.1,0,1.8-0.3,2.6-0.8c0.4-0.3,0.7-0.7,0.9-0.9
			c0.3-0.4,0.3-0.8,0.3-1.2c0-0.5-0.1-0.9-0.4-1.3C52.3,11.7,51.9,11.4,51.4,11.2z"/>
		<path class="st1" d="M54.3,16.3h1.3l1.2-2.6h5.1l1.2,2.6h1.3l-5-11.1L54.3,16.3z M59.4,8.1l2,4.5h-4.1L59.4,8.1z"/>
		<path class="st1" d="M67.8,7.6c0.7-0.4,1.3-0.5,2.1-0.5c0.5,0,1.2,0.1,1.7,0.4c0.5,0.3,1.1,0.5,1.5,0.9l0.1,0.1L74,7.7l-0.1-0.1
			c-0.5-0.5-1.1-0.9-1.7-1.2C71.5,6.1,70.7,6,70.1,6c-0.9,0-1.8,0.3-2.6,0.7c-0.8,0.5-1.5,1.1-2,2c-0.5,0.8-0.7,1.7-0.7,2.6
			c0,0.9,0.3,1.8,0.7,2.6c0.5,0.8,1.2,1.5,2,2c0.8,0.5,1.7,0.7,2.6,0.7h3.8v-5.4h-4.5v1.2h3.3v3.2h-2.6c-0.8,0-1.5-0.1-2.1-0.5
			c-0.7-0.4-1.2-0.9-1.6-1.5c-0.4-0.7-0.5-1.3-0.5-2.1c0-0.8,0.1-1.5,0.5-2.1C66.8,8.4,67.3,7.9,67.8,7.6z"/>
		<path class="st1" d="M80.9,11.9c0.3,0,0.7-0.1,1.1-0.3c0.5-0.3,0.9-0.5,1.3-1.1c0.4-0.5,0.5-1.1,0.5-1.7c0-0.4-0.1-0.8-0.3-1.2
			c-0.1-0.4-0.4-0.7-0.8-0.9c-0.4-0.3-0.7-0.5-1.2-0.7c-0.4-0.1-0.9-0.3-1.5-0.3h-3.8v10.4h1.3V7.1h2.6c0.5,0,0.9,0.1,1.3,0.3
			C82,7.5,82.2,7.7,82.4,8s0.3,0.5,0.3,0.9s-0.1,0.7-0.4,0.9c-0.3,0.3-0.5,0.5-0.8,0.7c-0.4,0.1-1.1,0.3-1.7,0.3H78l4.6,5.5h1.6
			l-3.8-4.4C80.5,11.9,80.8,11.9,80.9,11.9z"/>
		<polygon class="st1" points="85.6,10 85.6,16.3 86.8,16.3 86.8,8.8 		"/>
	</g>
</g>
</svg>
