<svg id="Layer_2" data-name="Layer 2" xmlns="http://www.w3.org/2000/svg" viewBox="0 0 52.8 15.10588"><defs><style>.cls-1{fill:#6dac3b;}.cls-2{fill:#3b5b44;}.cls-3{fill:#f5da00;}</style></defs><title>casagri-logo-02-02</title><path class="cls-1" d="M11.1436,5.496c-.19336-.29457-.40493-.5936-.62339-.88769L8.22228,6.81666V8.30339Z"/><polygon class="cls-2" points="9.853 3.748 8.222 1.864 8.222 5.315 9.853 3.748"/><path class="cls-2" d="M8.22228,8.30344V6.81671L5.9243,4.60839c-.2185.294-.43.5931-.62338.88767Z"/><path class="cls-2" d="M3.99166,8.72773a3.43751,3.43751,0,0,0,.15419,1.30248c.60471,1.91115,3.40817,2.5781,4.01055,2.69984Z"/><path class="cls-2" d="M8.22228,11.29167V9.805L4.73346,6.45231A7.99484,7.99484,0,0,0,4.26726,7.491Z"/><path class="cls-1" d="M12.17726,7.491a7.99086,7.99086,0,0,0-.4662-1.03872L8.22228,9.805v1.48671Z"/><path class="cls-1" d="M8.28807,12.73005c.60229-.12169,3.40589-.78865,4.0106-2.69984a3.43679,3.43679,0,0,0,.15419-1.30248Z"/><polygon class="cls-3" points="49.752 5.917 49.752 4.836 49.103 4.836 49.103 6.556 49.752 5.917"/><path class="cls-2" d="M19.94492,9.18649a2.39021,2.39021,0,0,1-.80866.63089,2.31964,2.31964,0,0,1-2.15762-.0846,2.35575,2.35575,0,0,1-.84973-.845A2.30023,2.30023,0,0,1,16.129,6.56211a2.35518,2.35518,0,0,1,.8496-.845,2.3099,2.3099,0,0,1,2.09958-.1088,2.33521,2.33521,0,0,1,.77521.56525l.08591.09533.49885-.43524-.08982-.09583a3.08429,3.08429,0,0,0-1.00711-.716,2.97229,2.97229,0,0,0-2.69385.14725,2.98526,2.98526,0,0,0-1.08464,1.07709,2.95156,2.95156,0,0,0-.00025,2.96128,2.97372,2.97372,0,0,0,1.08489,1.08185,2.92608,2.92608,0,0,0,1.494.40154,2.97032,2.97032,0,0,0,2.317-1.10505l.08186-.10108-.5152-.3943Z"/><path class="cls-2" d="M20.73558,10.63093h.72833l.6812-1.43747h2.89405l.64584,1.43747h.71655L23.64966,4.46056Zm2.89026-4.58316,1.12151,2.49809h-2.296Z"/><path class="cls-2" d="M30.039,7.70684a1.87206,1.87206,0,0,0-.41016-.15647,4.2359,4.2359,0,0,0-.48239-.09683l-.30525-.04293c-.2263-.0277-.41484-.05465-.5603-.07986a1.46135,1.46135,0,0,1-.36695-.112,1.25993,1.25993,0,0,1-.4478-.36761.73015.73015,0,0,1-.17283-.44721.65771.65771,0,0,1,.10288-.34788,1.12869,1.12869,0,0,1,.314-.32619,1.4955,1.4955,0,0,1,.48961-.23882,2.16672,2.16672,0,0,1,1.19387,0,1.607,1.607,0,0,1,.49543.23932,1.13419,1.13419,0,0,1,.2998.32069.74118.74118,0,0,1,.10769.34963l.00862.20763.63673-.34962-.01559-.08934a1.52021,1.52021,0,0,0-.64116-.95158,2.529,2.529,0,0,0-1.48579-.45,2.74328,2.74328,0,0,0-.80031.11654,2.35422,2.35422,0,0,0-.68728.33441,1.7245,1.7245,0,0,0-.49037.52982,1.294,1.294,0,0,0-.17687.65535,1.35033,1.35033,0,0,0,.26608.80259,1.85368,1.85368,0,0,0,.71541.58222,2.48618,2.48618,0,0,0,.68081.19889c.25254.03993.399.06289.4426.06888a3.29908,3.29908,0,0,1,.9744.21538,1.255,1.255,0,0,1,.42828.35461.69052.69052,0,0,1,.14433.41953.83215.83215,0,0,1-.40662.68179,1.80073,1.80073,0,0,1-1.09046.32392,2.13422,2.13422,0,0,1-.60327-.0841,1.51915,1.51915,0,0,1-.49177-.24281.83661.83661,0,0,1-.4113-.66882l-.0114-.20439-.63583.34987.01824.09085a1.54383,1.54383,0,0,0,.64825.95632,2.35027,2.35027,0,0,0,.687.33415,2.7482,2.7482,0,0,0,.80005.1163,2.5272,2.5272,0,0,0,1.48706-.45071,1.63613,1.63613,0,0,0,.48758-.54105,1.36618,1.36618,0,0,0,.17157-.66132,1.31483,1.31483,0,0,0-.24329-.75792A1.93378,1.93378,0,0,0,30.039,7.70684Z"/><path class="cls-2" d="M31.61313,10.63093h.72859l.6812-1.43747h2.8938l.646,1.43747h.71667L34.52708,4.46056Zm2.89039-4.58316,1.12163,2.49809H33.329Z"/><path class="cls-2" d="M39.22284,5.73032a2.28356,2.28356,0,0,1,1.1547-.30645,2.33452,2.33452,0,0,1,1.68791.72622l.08881.09384.47428-.43823-.087-.09309a2.97868,2.97868,0,0,0-.98137-.695,2.9539,2.9539,0,0,0-2.66812.14725,2.98587,2.98587,0,0,0-1.07565,1.06811,2.91208,2.91208,0,0,0,0,2.94132,2.95661,2.95661,0,0,0,2.56119,1.45667h2.16358V7.62274H40.02288v.63912h1.852v1.7302H40.37754a2.25938,2.25938,0,0,1-1.1542-.31044,2.341,2.341,0,0,1-.84542-.83653,2.213,2.213,0,0,1-.31106-1.14573,2.19,2.19,0,0,1,.31082-1.141A2.32224,2.32224,0,0,1,39.22284,5.73032Z"/><path class="cls-2" d="M46.4377,8.17152a1.93666,1.93666,0,0,0,.5588-.15846,1.782,1.782,0,0,0,.72794-.573,1.47893,1.47893,0,0,0,.16548-1.55076,1.7113,1.7113,0,0,0-.41573-.5433,1.96449,1.96449,0,0,0-.64825-.37883,2.33925,2.33925,0,0,0-.78864-.13127H43.94316v5.795H44.592V5.475H46.0373a1.58568,1.58568,0,0,1,.71971.15622,1.21813,1.21813,0,0,1,.4706.39606.8643.8643,0,0,1,.15979.49586.83652.83652,0,0,1-.18931.53158,1.25648,1.25648,0,0,1-.45729.37309,2.68009,2.68009,0,0,1-.98885.15223h-.96757l2.55043,3.05086h.85567l-2.0394-2.43571C46.24992,8.19024,46.3457,8.18226,46.4377,8.17152Z"/><polygon class="cls-2" points="49.103 7.063 49.103 10.631 49.752 10.631 49.752 6.424 49.103 7.063"/></svg>